<svg width="32" height="32" viewBox="0 0 32 32" fill="none" xmlns="http://www.w3.org/2000/svg">
<path d="M20 5.33331C20.7072 5.33331 21.3855 5.61426 21.8856 6.11436C22.3857 6.61446 22.6666 7.29274 22.6666 7.99998V9.33331H24.6933C25.093 9.33336 25.4875 9.42326 25.8478 9.59635C26.2081 9.76944 26.5248 10.0213 26.7746 10.3333L28.748 12.8013C29.1268 13.2742 29.3332 13.8621 29.3333 14.468V20C29.3333 20.7072 29.0523 21.3855 28.5522 21.8856C28.0521 22.3857 27.3739 22.6666 26.6666 22.6666C26.6666 23.7275 26.2452 24.7449 25.4951 25.4951C24.7449 26.2452 23.7275 26.6666 22.6666 26.6666C21.6058 26.6666 20.5883 26.2452 19.8382 25.4951C19.0881 24.7449 18.6666 23.7275 18.6666 22.6666H13.3333C13.3333 23.1919 13.2298 23.7121 13.0288 24.1974C12.8278 24.6827 12.5332 25.1236 12.1617 25.4951C11.7903 25.8665 11.3493 26.1611 10.864 26.3622C10.3787 26.5632 9.85858 26.6666 9.33329 26.6666C8.808 26.6666 8.28786 26.5632 7.80256 26.3622C7.31726 26.1611 6.8763 25.8665 6.50487 25.4951C6.13343 25.1236 5.83879 24.6827 5.63777 24.1974C5.43676 23.7121 5.33329 23.1919 5.33329 22.6666C4.62605 22.6666 3.94777 22.3857 3.44767 21.8856C2.94758 21.3855 2.66663 20.7072 2.66663 20V7.99998C2.66663 7.29274 2.94758 6.61446 3.44767 6.11436C3.94777 5.61426 4.62605 5.33331 5.33329 5.33331H20ZM9.33329 21.3333C8.97967 21.3333 8.64053 21.4738 8.39048 21.7238C8.14044 21.9739 7.99996 22.313 7.99996 22.6666C7.99996 23.0203 8.14044 23.3594 8.39048 23.6095C8.64053 23.8595 8.97967 24 9.33329 24C9.68691 24 10.0261 23.8595 10.2761 23.6095C10.5261 23.3594 10.6666 23.0203 10.6666 22.6666C10.6666 22.313 10.5261 21.9739 10.2761 21.7238C10.0261 21.4738 9.68691 21.3333 9.33329 21.3333ZM22.6666 21.3333C22.313 21.3333 21.9739 21.4738 21.7238 21.7238C21.4738 21.9739 21.3333 22.313 21.3333 22.6666C21.3333 23.0203 21.4738 23.3594 21.7238 23.6095C21.9739 23.8595 22.313 24 22.6666 24C23.0202 24 23.3594 23.8595 23.6094 23.6095C23.8595 23.3594 24 23.0203 24 22.6666C24 22.313 23.8595 21.9739 23.6094 21.7238C23.3594 21.4738 23.0202 21.3333 22.6666 21.3333ZM20 7.99998H5.33329V20H6.35196C6.71257 19.5959 7.15156 19.2693 7.64227 19.0401C8.13298 18.8109 8.66516 18.6838 9.20649 18.6666C9.74783 18.6494 10.287 18.7424 10.7913 18.94C11.2956 19.1376 11.7544 19.4356 12.14 19.816L12.3146 20H19.6853L19.8386 19.8386L20 19.6853V7.99998ZM24.6933 12H22.6666V18.6666C23.76 18.6666 24.7506 19.1066 25.4733 19.816L25.648 20H26.6666V14.4666L24.6933 12Z" fill="white"/>
</svg>
