<svg width="32" height="32" viewBox="0 0 32 32" fill="none" xmlns="http://www.w3.org/2000/svg">
<path d="M26.6666 2.66664V7.99998M29.3333 5.33331H24M14.6893 3.75198C14.7464 3.44612 14.9087 3.16987 15.1481 2.97107C15.3875 2.77227 15.6888 2.66345 16 2.66345C16.3111 2.66345 16.6125 2.77227 16.8518 2.97107C17.0912 3.16987 17.2535 3.44612 17.3106 3.75198L18.712 11.1626C18.8115 11.6895 19.0675 12.1741 19.4467 12.5533C19.8258 12.9324 20.3104 13.1885 20.8373 13.288L28.248 14.6893C28.5538 14.7464 28.8301 14.9087 29.0289 15.1481C29.2277 15.3875 29.3365 15.6888 29.3365 16C29.3365 16.3111 29.2277 16.6125 29.0289 16.8518C28.8301 17.0912 28.5538 17.2535 28.248 17.3106L20.8373 18.712C20.3104 18.8115 19.8258 19.0675 19.4467 19.4467C19.0675 19.8258 18.8115 20.3104 18.712 20.8373L17.3106 28.248C17.2535 28.5538 17.0912 28.8301 16.8518 29.0289C16.6125 29.2277 16.3111 29.3365 16 29.3365C15.6888 29.3365 15.3875 29.2277 15.1481 29.0289C14.9087 28.8301 14.7464 28.5538 14.6893 28.248L13.288 20.8373C13.1885 20.3104 12.9324 19.8258 12.5533 19.4467C12.1741 19.0675 11.6895 18.8115 11.1626 18.712L3.75198 17.3106C3.44612 17.2535 3.16987 17.0912 2.97107 16.8518C2.77227 16.6125 2.66345 16.3111 2.66345 16C2.66345 15.6888 2.77227 15.3875 2.97107 15.1481C3.16987 14.9087 3.44612 14.7464 3.75198 14.6893L11.1626 13.288C11.6895 13.1885 12.1741 12.9324 12.5533 12.5533C12.9324 12.1741 13.1885 11.6895 13.288 11.1626L14.6893 3.75198Z" stroke="white" stroke-width="2" stroke-linecap="round" stroke-linejoin="round"/>
<path d="M5.33329 29.3333C6.80605 29.3333 7.99996 28.1394 7.99996 26.6667C7.99996 25.1939 6.80605 24 5.33329 24C3.86053 24 2.66663 25.1939 2.66663 26.6667C2.66663 28.1394 3.86053 29.3333 5.33329 29.3333Z" stroke="white" stroke-width="2" stroke-linecap="round" stroke-linejoin="round"/>
</svg>
