<svg width="32" height="32" viewBox="0 0 32 32" fill="none" xmlns="http://www.w3.org/2000/svg">
<path d="M14.6666 26.6667C12.3254 26.6738 10.067 25.8007 8.33934 24.2206C6.61169 22.6405 5.541 20.4688 5.33963 18.1362C5.13826 15.8036 5.8209 13.4805 7.25218 11.6277C8.68346 9.77485 10.7588 8.52762 13.0666 8.13335C20.6666 6.66669 22.6666 5.97335 25.3333 2.66669C26.6666 5.33335 28 8.24002 28 13.3334C28 20.6667 21.6266 26.6667 14.6666 26.6667Z" stroke="white" stroke-width="2" stroke-linecap="round" stroke-linejoin="round"/>
<path d="M2.66666 28C2.66666 24 5.13332 20.8533 9.43999 20C12.6667 19.36 16 17.3333 17.3333 16" stroke="white" stroke-width="2" stroke-linecap="round" stroke-linejoin="round"/>
</svg>
